<svg width="4320" height="3072" viewBox="0 0 4320 3072" fill="none" xmlns="http://www.w3.org/2000/svg">
<g clip-path="url(#clip0_811_1540)">
<rect width="4320" height="3072" fill="#FDF9F6"/>
<g clip-path="url(#clip1_811_1540)">
<line x1="3195" y1="3405" x2="3195" y2="1905" stroke="#E48900" stroke-width="6"/>
<line x1="3361.5" y1="3405" x2="3361.5" y2="1905" stroke="#E48900" stroke-width="6"/>
<line x1="3528" y1="3405" x2="3528" y2="1905" stroke="#E48900" stroke-width="6"/>
<line x1="3694.5" y1="3405" x2="3694.5" y2="1905" stroke="#E48900" stroke-width="6"/>
<line x1="3861" y1="3405" x2="3861" y2="1905" stroke="#E48900" stroke-width="6"/>
<line x1="4027.5" y1="3405" x2="4027.5" y2="1905" stroke="#E48900" stroke-width="6"/>
<line x1="4194" y1="3405" x2="4194" y2="1905" stroke="#E48900" stroke-width="6"/>
<line x1="4530.75" y1="3074.25" x2="3030.75" y2="3074.25" stroke="#E48900" stroke-width="6"/>
<line x1="4530.75" y1="2907.75" x2="3030.75" y2="2907.75" stroke="#E48900" stroke-width="6"/>
<line x1="4530.75" y1="2741.25" x2="3030.75" y2="2741.25" stroke="#E48900" stroke-width="6"/>
<line x1="4530.75" y1="2574.75" x2="3030.75" y2="2574.75" stroke="#E48900" stroke-width="6"/>
<line x1="4530.75" y1="2408.25" x2="3030.75" y2="2408.25" stroke="#E48900" stroke-width="6"/>
<line x1="4530.75" y1="2241.75" x2="3030.75" y2="2241.75" stroke="#E48900" stroke-width="6"/>
<line x1="4530.75" y1="2075.25" x2="3030.75" y2="2075.25" stroke="#E48900" stroke-width="6"/>
<circle cx="3621" cy="3039" r="297" fill="#8097E8" stroke="#D99248" stroke-width="6"/>
</g>
<rect x="3033" y="1908" width="1494" height="1494" stroke="#D99248" stroke-width="6"/>
<circle cx="3003" cy="2310" r="147" fill="#CC5A7E" stroke="#5A6BC2" stroke-width="6"/>
<g clip-path="url(#clip2_811_1540)">
<line x1="504.749" y1="1360.5" x2="504.749" y2="348" stroke="#E48900" stroke-width="4.05"/>
<line x1="649.538" y1="1360.5" x2="649.537" y2="348" stroke="#E48900" stroke-width="4.05"/>
<line x1="794.326" y1="1360.5" x2="794.326" y2="348" stroke="#E48900" stroke-width="4.05"/>
<line x1="939.112" y1="1360.5" x2="939.112" y2="348" stroke="#E48900" stroke-width="4.05"/>
<line x1="1083.9" y1="1360.5" x2="1083.9" y2="348" stroke="#E48900" stroke-width="4.05"/>
<line x1="1228.69" y1="1360.5" x2="1228.69" y2="348" stroke="#E48900" stroke-width="4.05"/>
<line x1="1374.99" y1="1218.24" x2="362.493" y2="1218.24" stroke="#E48900" stroke-width="4.05"/>
<line x1="1374.99" y1="1073.46" x2="362.493" y2="1073.46" stroke="#E48900" stroke-width="4.05"/>
<line x1="1374.99" y1="928.668" x2="362.493" y2="928.668" stroke="#E48900" stroke-width="4.05"/>
<line x1="1374.99" y1="783.882" x2="362.493" y2="783.882" stroke="#E48900" stroke-width="4.05"/>
<line x1="1374.99" y1="639.094" x2="362.493" y2="639.094" stroke="#E48900" stroke-width="4.05"/>
<line x1="1374.99" y1="494.306" x2="362.493" y2="494.306" stroke="#E48900" stroke-width="4.05"/>
</g>
<rect x="365.025" y="350.025" width="1008.45" height="1008.45" stroke="#D99248" stroke-width="4.05"/>
<path d="M1614.36 880.904C1682.97 547.857 1262.37 471.185 1167.68 723.998L1021.39 677.412C1107.65 286.352 1886.23 324.044 1757.04 922.799L1614.36 880.904Z" fill="#431F4F"/>
<path d="M1757.12 922.817C1757.39 921.606 1756.78 924.005 1757.04 922.799M1167.68 723.998C1168.49 721.625 1166.81 726.316 1167.68 723.998ZM1167.68 723.998C1262.37 471.185 1682.97 547.857 1614.36 880.904L1757.04 922.799M1167.68 723.998L1021.39 677.412C1107.65 286.352 1886.23 324.044 1757.04 922.799" stroke="#431F4F" stroke-width="12" stroke-linecap="round"/>
<path d="M1599.65 846.832C1668.25 513.784 1247.65 437.113 1152.96 689.926L1006.68 643.34C1092.94 252.28 1871.52 289.972 1742.33 888.727L1599.65 846.832Z" fill="#FDF9F6"/>
<path d="M1742.41 888.745C1742.67 887.534 1742.07 889.933 1742.33 888.727M1152.96 689.926C1153.78 687.553 1152.1 692.243 1152.96 689.926ZM1152.96 689.926C1247.65 437.113 1668.25 513.784 1599.65 846.832L1742.33 888.727M1152.96 689.926L1006.68 643.34C1092.94 252.28 1871.52 289.972 1742.33 888.727" stroke="#431F4F" stroke-width="6" stroke-linecap="round"/>
<path d="M166.921 1147.76L87 983.48L344.523 872.479L531.005 1045.64L753.007 1001.24L881.768 1134.44L1014.97 1085.6L1077.13 1254.32L832.928 1360.88L681.966 1205.48L473.284 1254.32L304.562 1085.6L166.921 1147.76Z" fill="#0671E0" stroke="#0671E0" stroke-width="6" stroke-linecap="round"/>
<path d="M175.79 1112.28L95.8691 948.001L353.392 837L539.874 1010.16L761.876 965.761L890.638 1098.96L1023.84 1050.12L1086 1218.84L841.797 1325.41L690.835 1170L482.153 1218.84L313.431 1050.12L175.79 1112.28Z" fill="#E48900" stroke="#0671E0" stroke-width="6" stroke-linecap="round"/>
<path d="M1088.69 2760.59L1222.23 2003.24L1811.34 2497.56L1088.69 2760.59Z" fill="#FDF9F6" stroke="#E48900" stroke-width="6"/>
<mask id="mask0_811_1540" style="mask-type:alpha" maskUnits="userSpaceOnUse" x="1087" y="2006" width="734" height="768">
<path d="M1091.77 2769.04L1225.31 2011.7L1814.42 2506.02L1091.77 2769.04Z" fill="white" stroke="#E48900" stroke-width="6"/>
</mask>
<g mask="url(#mask0_811_1540)">
<path d="M1267.87 2058.46C1276.96 2043.97 1297.72 2039.61 1312.08 2043.96M1249.93 2079.34C1251.68 2085.62 1255.16 2100.74 1255.06 2110.99" stroke="#E48900" stroke-width="12" stroke-linecap="round"/>
<path d="M1235.44 2052.7L1217.9 2087.82" stroke="#E48900" stroke-width="12" stroke-linecap="round"/>
<path d="M1318.25 2113.54C1303.77 2104.45 1299.41 2083.69 1303.76 2069.34M1339.14 2131.48C1345.42 2129.73 1360.54 2126.25 1370.79 2126.35" stroke="#E48900" stroke-width="12" stroke-linecap="round"/>
<path d="M1312.5 2145.97L1347.61 2163.52" stroke="#E48900" stroke-width="12" stroke-linecap="round"/>
<path d="M1359.28 2208.75C1350.19 2223.23 1329.43 2227.6 1315.07 2223.24M1377.22 2187.87C1375.47 2181.59 1371.99 2166.47 1372.09 2156.21" stroke="#E48900" stroke-width="12" stroke-linecap="round"/>
<path d="M1391.71 2214.5L1409.25 2179.39" stroke="#E48900" stroke-width="12" stroke-linecap="round"/>
<path d="M1440.41 2225.51C1425.92 2216.42 1421.56 2195.66 1425.91 2181.3M1461.29 2243.45C1467.57 2241.7 1482.69 2238.22 1492.94 2238.32" stroke="#E48900" stroke-width="12" stroke-linecap="round"/>
<path d="M1434.65 2257.94L1469.77 2275.48" stroke="#E48900" stroke-width="12" stroke-linecap="round"/>
<path d="M1507.5 2294.86C1491.65 2288.42 1483.75 2268.74 1485.55 2253.84M1531.18 2308.9C1537.06 2306.09 1551.35 2300.03 1561.46 2298.35" stroke="#E48900" stroke-width="12" stroke-linecap="round"/>
<path d="M1507.46 2327.8L1545.09 2338.98" stroke="#E48900" stroke-width="12" stroke-linecap="round"/>
<path d="M1599.83 2344.87C1608.93 2330.39 1629.69 2326.02 1644.04 2330.38M1581.89 2365.75C1583.65 2372.03 1587.13 2387.15 1587.03 2397.41" stroke="#E48900" stroke-width="12" stroke-linecap="round"/>
<path d="M1567.41 2339.11L1549.86 2374.23" stroke="#E48900" stroke-width="12" stroke-linecap="round"/>
<path d="M1668.83 2405.77C1683.31 2414.87 1687.67 2435.63 1683.32 2449.98M1647.94 2387.83C1641.66 2389.58 1626.54 2393.07 1616.29 2392.97" stroke="#E48900" stroke-width="12" stroke-linecap="round"/>
<path d="M1674.58 2373.35L1639.46 2355.8" stroke="#E48900" stroke-width="12" stroke-linecap="round"/>
<path d="M1710.51 2489.56C1701.41 2504.04 1680.65 2508.4 1666.3 2504.05M1728.44 2468.67C1726.69 2462.39 1723.21 2447.27 1723.31 2437.02" stroke="#E48900" stroke-width="12" stroke-linecap="round"/>
<path d="M1742.93 2495.31L1760.48 2460.19" stroke="#E48900" stroke-width="12" stroke-linecap="round"/>
</g>
<path d="M1040.52 2803.66L1174.06 2046.31L1763.17 2540.64L1040.52 2803.66Z" fill="#FDF9F6" stroke="#E48900" stroke-width="6"/>
<path d="M2633.71 837.385C2616.54 823.627 2586.34 785.1 2602.93 741.061C2619.52 697.021 2595.84 660.053 2581.93 647.074C2558.86 625.556 2539.54 586.048 2574.43 537" stroke="#82C3C7" stroke-width="48" stroke-linecap="round"/>
<path d="M2306.7 2789.97C2309.84 2768.19 2327.71 2722.61 2374.08 2714.55C2420.44 2706.49 2440.28 2667.33 2444.4 2648.76C2451.23 2617.96 2475.47 2581.26 2535.43 2586.43" stroke="#82C3C7" stroke-width="48" stroke-linecap="round"/>
<path d="M291.311 2392.9C281.851 2437.86 235.728 2546.54 134.985 2528.43C58.0405 2514.59 -14.115 2527.23 -34.5628 2544.38C-62.2673 2563.27 -99.3316 2618.77 -98.6966 2654.82" stroke="#5A6BC2" stroke-width="30" stroke-linecap="round"/>
<path d="M4311.31 1336.9C4301.85 1381.86 4255.73 1490.54 4154.98 1472.43C4078.04 1458.59 4005.88 1471.23 3985.44 1488.38C3957.73 1507.27 3920.67 1562.77 3921.3 1598.82" stroke="#5A6BC2" stroke-width="30" stroke-linecap="round"/>
<path d="M4038 1983.52L3372 1599L4038 1214.48V1983.52Z" fill="#FDF9F6" stroke="#82C3C7" stroke-width="6"/>
<mask id="mask1_811_1540" style="mask-type:alpha" maskUnits="userSpaceOnUse" x="3375" y="1209" width="675" height="780">
<path d="M4047 1983.52L3381 1599L4047 1214.48V1983.52Z" fill="white" stroke="#82C3C7" stroke-width="6"/>
</mask>
<g mask="url(#mask1_811_1540)">
<path d="M3439.5 1575C3429 1561.5 3432 1540.5 3441 1528.5M3452.99 1599C3459.49 1599.5 3474.89 1601.4 3484.49 1605" stroke="#82C3C7" stroke-width="12" stroke-linecap="round"/>
<path d="M3423 1603.5L3450 1632" stroke="#82C3C7" stroke-width="12" stroke-linecap="round"/>
<path d="M3508.49 1546.49C3494.99 1556.99 3473.99 1553.99 3461.99 1544.99M3532.49 1533.01C3532.99 1526.51 3534.89 1511.11 3538.49 1501.51" stroke="#82C3C7" stroke-width="12" stroke-linecap="round"/>
<path d="M3536.99 1562.99L3565.49 1535.99" stroke="#82C3C7" stroke-width="12" stroke-linecap="round"/>
<path d="M3611.99 1540.5C3622.49 1554 3619.49 1575 3610.49 1587M3598.5 1516.5C3592 1516 3576.6 1514.1 3567 1510.5" stroke="#82C3C7" stroke-width="12" stroke-linecap="round"/>
<path d="M3628.49 1512L3601.49 1483.5" stroke="#82C3C7" stroke-width="12" stroke-linecap="round"/>
<path d="M3655.49 1470C3641.99 1480.5 3620.99 1477.5 3608.99 1468.5M3679.49 1456.51C3679.99 1450.01 3681.89 1434.61 3685.49 1425.01" stroke="#82C3C7" stroke-width="12" stroke-linecap="round"/>
<path d="M3683.99 1486.5L3712.49 1459.5" stroke="#82C3C7" stroke-width="12" stroke-linecap="round"/>
<path d="M3743.61 1430.68C3732.14 1443.36 3710.93 1444.05 3697.55 1437.27M3764.9 1413.23C3764.26 1406.74 3763.46 1391.24 3765.34 1381.16" stroke="#82C3C7" stroke-width="12" stroke-linecap="round"/>
<path d="M3774.54 1441.98L3797.92 1410.44" stroke="#82C3C7" stroke-width="12" stroke-linecap="round"/>
<path d="M3822.18 1361.02C3811.68 1347.52 3814.68 1326.52 3823.68 1314.52M3835.66 1385.02C3842.16 1385.52 3857.56 1387.42 3867.16 1391.02" stroke="#82C3C7" stroke-width="12" stroke-linecap="round"/>
<path d="M3805.68 1389.52L3832.68 1418.02" stroke="#82C3C7" stroke-width="12" stroke-linecap="round"/>
<path d="M3903 1317.01C3916.5 1306.51 3937.5 1309.51 3949.5 1318.51M3879 1330.5C3878.5 1337 3876.6 1352.4 3873 1362" stroke="#82C3C7" stroke-width="12" stroke-linecap="round"/>
<path d="M3874.5 1300.51L3846 1327.51" stroke="#82C3C7" stroke-width="12" stroke-linecap="round"/>
<path d="M3995.99 1306.5C4006.49 1320 4003.49 1341 3994.49 1353M3982.5 1282.5C3976 1282 3960.6 1280.1 3951 1276.5" stroke="#82C3C7" stroke-width="12" stroke-linecap="round"/>
<path d="M4012.49 1278L3985.49 1249.5" stroke="#82C3C7" stroke-width="12" stroke-linecap="round"/>
</g>
<path d="M4062 2043.52L3396 1659L4062 1274.48V2043.52Z" fill="#FDF9F6" stroke="#82C3C7" stroke-width="6"/>
<circle cx="1362" cy="1056" r="127.5" fill="#431F4F" stroke="#D99248" stroke-width="9"/>
<path d="M2634 1852C2693.71 1847.41 2812.01 1811.77 2807.61 1705.95C2803.2 1600.14 2882.93 1562.66 2923.34 1557.15C3039.08 1504.79 3000.5 1457.95 3008.77 1405.59C3006.01 1362.42 3025.3 1275.52 3124.51 1273.32C3223.71 1271.11 3222.79 1173.19 3209.93 1124.51L3207.18 1119" stroke="#E48900" stroke-width="48" stroke-linecap="round"/>
<path d="M868.922 1794C859.966 1853.21 868.078 1976.5 972.175 1996.01C1076.27 2015.52 1094.85 2101.63 1091.13 2142.25C1116.11 2266.8 1170.44 2239.75 1219.59 2259.58C1262.28 2266.61 1342.61 2304.95 1322.44 2402.11C1302.27 2499.27 1397.88 2520.4 1448.21 2518.82L1454.2 2517.37" stroke="#E48900" stroke-width="48" stroke-linecap="round"/>
</g>
<defs>
<clipPath id="clip0_811_1540">
<rect width="4320" height="3072" fill="white"/>
</clipPath>
<clipPath id="clip1_811_1540">
<rect x="3030" y="1905" width="1500" height="1500" fill="white"/>
</clipPath>
<clipPath id="clip2_811_1540">
<rect x="363" y="348" width="1012.5" height="1012.5" fill="white"/>
</clipPath>
</defs>
</svg>
